<svg id="Слой_1" data-name="Слой 1" xmlns="http://www.w3.org/2000/svg" viewBox="0 0 1190.55 841.89"><defs><style>.cls-1{fill:#1d1d1b;}.cls-2{fill:#050703;}</style></defs><path d="M445.52,695.38V747.6H431.43V719.85L420,737h-8.08l-11.42-17.23V747.6H386.42V695.38h13.32L416,719.85l16.22-24.47Z"/><path d="M453.52,747.6l20.94-52.22h15.23l20.95,52.22H496.17l-3.05-8.21H471l-3,8.21Zm21.7-19.4h13.72l-5.49-15.07a20.48,20.48,0,0,1-.69-2.09c-.2-.74-.43-1.81-.68-3.2-.26,1.39-.49,2.46-.69,3.2a20.51,20.51,0,0,1-.68,2.09Z"/><path d="M566.62,695.38V747.6H552.53V727.68H532.72V747.6H518.63V695.38h14.09v20h19.81v-20Z"/><path d="M613.46,747.6V726.26c0-1.44,0-2.92.08-4.44s.12-2.89.22-4.14L592.89,747.6H579.57V695.38h14.09v21.33c0,1.44,0,2.94-.08,4.48s-.13,2.93-.23,4.17l20.87-30h13.33V747.6Z"/><path d="M640.49,747.6V695.38h14.09v19.77h6.71l12.11-19.77H689l-16.76,25.44,17.52,26.78H674.16l-12.95-20.14h-6.63V747.6Z"/><path d="M774.47,721.49a30.13,30.13,0,0,1-1.79,10.36,24.63,24.63,0,0,1-5.37,8.69,25.41,25.41,0,0,1-8.92,6,32.68,32.68,0,0,1-12.49,2.2A31.9,31.9,0,0,1,735.09,747a25.64,25.64,0,0,1-8.15-4.58,23.8,23.8,0,0,1-5.52-6.75,26.55,26.55,0,0,1-2.86-8.1h-7.31v20H697.16V695.38h14.09v19.91h7.31a26.59,26.59,0,0,1,2.86-8.09,23.24,23.24,0,0,1,5.52-6.71,26.17,26.17,0,0,1,8.15-4.55,32.16,32.16,0,0,1,10.81-1.68,32.49,32.49,0,0,1,12.49,2.2,25.39,25.39,0,0,1,8.92,6,24.81,24.81,0,0,1,5.37,8.69A30.19,30.19,0,0,1,774.47,721.49Zm-42.66,0a17.65,17.65,0,0,0,.92,5.78,13.4,13.4,0,0,0,2.67,4.62,11.5,11.5,0,0,0,4.41,3.06A17.74,17.74,0,0,0,752,735a11.69,11.69,0,0,0,4.42-3.06,13.38,13.38,0,0,0,2.66-4.62,18.81,18.81,0,0,0,0-11.56,13.52,13.52,0,0,0-2.66-4.63A11.8,11.8,0,0,0,752,708a17.74,17.74,0,0,0-12.19,0,11.61,11.61,0,0,0-4.41,3.06,13.54,13.54,0,0,0-2.67,4.63A17.56,17.56,0,0,0,731.81,721.49Z"/><path d="M805.85,695.38a46.37,46.37,0,0,1,9.18.85,20.67,20.67,0,0,1,7.35,2.95,14.88,14.88,0,0,1,4.91,5.52,21.57,21.57,0,0,1,0,17.16,14.46,14.46,0,0,1-4.91,5.48,21.43,21.43,0,0,1-7.35,2.95,44.82,44.82,0,0,1-9.18.89h-7V747.6H784.75V695.38Zm8.76,17.9a6,6,0,0,0-.65-2.95,4.81,4.81,0,0,0-1.79-1.82,7.91,7.91,0,0,0-2.59-.94,17.58,17.58,0,0,0-3.05-.26h-7.69v11.94h7.69a17.58,17.58,0,0,0,3.05-.26,7.91,7.91,0,0,0,2.59-.94,4.74,4.74,0,0,0,1.79-1.82A6,6,0,0,0,814.61,713.28Z"/><path d="M828.62,747.6l21-52.22H864.8l21,52.22H871.27l-3-8.21H846.14l-3,8.21Zm21.71-19.4H864l-5.49-15.07a20.51,20.51,0,0,1-.68-2.09c-.2-.74-.43-1.81-.69-3.2-.25,1.39-.48,2.46-.68,3.2a20.48,20.48,0,0,1-.69,2.09Z"/><path class="cls-1" d="M416.8,819.59a23.57,23.57,0,0,1-.87,6.47,15.24,15.24,0,0,1-2.69,5.37,12.91,12.91,0,0,1-4.52,3.64,14.08,14.08,0,0,1-6.37,1.35,17.31,17.31,0,0,1-6.42-1.15A14.29,14.29,0,0,1,391,832a14.8,14.8,0,0,1-3.19-5,17.77,17.77,0,0,1-1.13-6.47c0-.8,0-1.59.08-2.39a15,15,0,0,1,.4-2.38,17.19,17.19,0,0,1,1.88-4.62,15.12,15.12,0,0,1,3-3.71,13.45,13.45,0,0,1,9-3.34c1,0,2,.06,3,.15a13.7,13.7,0,0,1,2.91.65,14.35,14.35,0,0,1,4.14,2.32,14.86,14.86,0,0,1,3.11,3.42,16.51,16.51,0,0,1,1.94,4.24A17.05,17.05,0,0,1,416.8,819.59Zm-3,3.4a27.62,27.62,0,0,0-.7-6,19.3,19.3,0,0,0-2.24-5.67,13.13,13.13,0,0,0-3.93-4.25,10,10,0,0,0-5.81-1.65,10.73,10.73,0,0,0-5,1.1,10.3,10.3,0,0,0-3.48,3,12.7,12.7,0,0,0-2,4.29,19.28,19.28,0,0,0-.66,5.08,21.5,21.5,0,0,0,.81,5.78,17.21,17.21,0,0,0,2.41,5.24,13.12,13.12,0,0,0,4,3.78,10.66,10.66,0,0,0,5.64,1.45,11.75,11.75,0,0,0,4.76-.9,9.69,9.69,0,0,0,3.46-2.54,11,11,0,0,0,2.1-3.84A16.13,16.13,0,0,0,413.79,823Z"/><path class="cls-1" d="M422.58,835.71q0-.13.15-.15a1.15,1.15,0,0,1,.24,0,5.07,5.07,0,0,0,.78-.14,3.44,3.44,0,0,0,.75-.35,4.61,4.61,0,0,0,1.5-1.77,21.15,21.15,0,0,0,1.08-2.29l10.09-25.67c.5-1.27.82-1.9,1-1.9s.22.16.32.46.3.85.59,1.62l9.62,26c.24.62.42,1.09.57,1.41s.34.7.57,1.11a3.09,3.09,0,0,0,1.36,1.15,4.25,4.25,0,0,0,1.75.4c.14,0,.21,0,.21.13a.17.17,0,0,1-.13.18,1,1,0,0,1-.22,0c-.76,0-1.47,0-2.14-.09s-1.38-.09-2.14-.09a14.22,14.22,0,0,0-1.73.11,13.48,13.48,0,0,1-1.64.12c-.15,0-.22-.07-.22-.18s.1-.13.31-.2a1.59,1.59,0,0,0,.4-.2,1.29,1.29,0,0,0,.52-1.06,4.47,4.47,0,0,0-.16-.88,13.62,13.62,0,0,0-.41-1.39c-.17-.52-.36-1.06-.55-1.62l-.55-1.63-6.16-17.63c-.32-1-.56-1.5-.74-1.5s-.24.16-.37.48l-.68,1.68L429,831.65a6.43,6.43,0,0,0-.52,2.34,1.36,1.36,0,0,0,.52,1.15,1.56,1.56,0,0,0,.5.17c.25.06.38.15.38.27s-.15.22-.44.22c-.5,0-1,0-1.53,0s-1,0-1.53,0a11.42,11.42,0,0,0-1.55.11,11.45,11.45,0,0,1-1.56.12l-.43,0C422.68,835.89,422.58,835.83,422.58,835.71Z"/><path class="cls-1" d="M465.77,804.79a7.62,7.62,0,0,0,1.51-.16,10,10,0,0,1,1.81-.15l.48,0c.23,0,.35.09.35.23s-.07.12-.21.18l-.51.18-.59.17a3.88,3.88,0,0,0-.48.18,1.76,1.76,0,0,0-.87,1.26,8.17,8.17,0,0,0-.18,1.66v8.17a1.18,1.18,0,0,0,.28.91,2.16,2.16,0,0,0,1.17.28,30.17,30.17,0,0,1,4.62.55,13.39,13.39,0,0,1,4.15,1.57,8.79,8.79,0,0,1,3,3,8.92,8.92,0,0,1,1.14,4.7,7.29,7.29,0,0,1-.83,3.49,9,9,0,0,1-2.21,2.67,10.35,10.35,0,0,1-3.12,1.73,10.94,10.94,0,0,1-3.53.59,28.68,28.68,0,0,1-3-.15,26.13,26.13,0,0,0-3-.16c-.64,0-1.38,0-2.21.07s-1.57.07-2.21.07l-.28,0c-.14,0-.2-.08-.2-.2s.07-.11.22-.15a3,3,0,0,1,.47-.09l.51,0,.32,0a1.55,1.55,0,0,0,.84-.35,2.17,2.17,0,0,0,.52-.75,5,5,0,0,0,.28-1.39c.08-.66.14-1.39.18-2.16s.07-1.53.09-2.24,0-1.23,0-1.59V808.37a4.38,4.38,0,0,0-.52-2.41,2.6,2.6,0,0,0-2.19-.82c-.2,0-.31-.07-.31-.22s.16-.23.46-.26l.63,0c.59,0,1.16,0,1.71.09A15.9,15.9,0,0,0,465.77,804.79Zm12.9,23.46q0-4.47-2.78-6.7c-1.85-1.48-4.44-2.23-7.76-2.23a2.33,2.33,0,0,0-.77.11c-.19.08-.28.32-.28.73v9c0,.23,0,.57,0,1s0,.89.07,1.35a8.74,8.74,0,0,0,.15,1.3,2.31,2.31,0,0,0,.28.88,2.69,2.69,0,0,0,1.75,1.13,10.25,10.25,0,0,0,2.1.24,8.76,8.76,0,0,0,2.82-.44,6.41,6.41,0,0,0,2.3-1.3,6.33,6.33,0,0,0,1.53-2.14A7.4,7.4,0,0,0,478.67,828.25Z"/><path class="cls-1" d="M493.84,808.14a3.86,3.86,0,0,0-.57-2.24,2.71,2.71,0,0,0-2.1-.93.93.93,0,0,1-.24-.05c-.1,0-.16-.07-.16-.13s.07-.14.18-.18a1,1,0,0,1,.26,0,17.64,17.64,0,0,1,2,.11c.7.07,1.37.11,2,.11,1.72,0,3.39,0,5-.11s3.28-.11,5-.11c.69,0,1.2,0,1.52,0a6,6,0,0,1,.71,0c.11,0,.17.1.17.31s0,.28,0,.4,0,.23,0,.35c0,.68,0,1.19,0,1.55s0,.6,0,.75-.05.26-.17.26-.14,0-.15-.11a1.18,1.18,0,0,0-.07-.2,1.65,1.65,0,0,0-.59-.9,4.28,4.28,0,0,0-1.2-.46,6.7,6.7,0,0,0-1.21-.14c-.54,0-1,0-1.41,0H497.6a1.85,1.85,0,0,0-.77.11c-.13.07-.2.31-.2.73v22.44c0,.85,0,1.59,0,2.21a8.33,8.33,0,0,0,.15,1.56,2.7,2.7,0,0,0,.41,1.06,2.13,2.13,0,0,0,.81.69,2,2,0,0,0,.68.24c.25.05.48.08.7.11l.54.09c.15,0,.22.09.22.18a.17.17,0,0,1-.12.18l-.22,0q-1,0-2.28-.09c-.85-.06-1.61-.09-2.27-.09s-1.37,0-1.93.07-1.2.07-1.92.07c-.38,0-.57-.08-.57-.23s.08-.14.25-.17l.32-.05c.32-.06.63-.12.94-.2a1.29,1.29,0,0,0,.77-.55,3,3,0,0,0,.39-.95,8.47,8.47,0,0,0,.19-1.14c0-.4.08-.8.1-1.2s0-.74,0-1Z"/><path class="cls-1" d="M518.23,804.74c0-.08.07-.14.19-.15l.38,0a10.49,10.49,0,0,1,1.6.11,11.67,11.67,0,0,0,1.59.11,11.49,11.49,0,0,0,1.66-.13,10.19,10.19,0,0,1,1.62-.13,2.44,2.44,0,0,1,.35,0c.15,0,.22.08.22.19s-.09.2-.26.23a1,1,0,0,0-.35.09,1.85,1.85,0,0,0-1.53,1.14,7.51,7.51,0,0,0-.31,2.43v20.9c0,.29,0,.56,0,.79s.08.36.2.36.2-.08.35-.23l.31-.3,19.05-24.52a11.57,11.57,0,0,1,.88-1,1.23,1.23,0,0,1,.79-.44c.14,0,.24.15.31.46a6.94,6.94,0,0,1,.08,1.09v1.15c0,.65,0,1.33,0,2s0,1.38,0,2v19.41c0,.27,0,.64,0,1.13a12.17,12.17,0,0,0,.13,1.46,9,9,0,0,0,.31,1.36,1.2,1.2,0,0,0,.59.82,3.12,3.12,0,0,0,1.11.27c.42,0,.63.12.63.26s-.23.23-.69.23-1.14,0-1.73-.07-1.18-.07-1.73-.07a16.76,16.76,0,0,0-1.83.11,17.19,17.19,0,0,1-1.84.12l-.51,0c-.21,0-.32-.09-.32-.24s.1-.19.3-.22l.4-.05a3,3,0,0,0,1.09-.48,2.17,2.17,0,0,0,.63-.86,7,7,0,0,0,.4-1.22,8.68,8.68,0,0,0,.19-1.3c0-.43,0-.79,0-1.09V811.64c0-.24,0-.52,0-.84s-.06-.49-.15-.49a.81.81,0,0,0-.65.47,4.85,4.85,0,0,1-.66.81l-17.84,22.8c-.08.09-.23.25-.43.51s-.43.5-.66.74-.46.48-.67.67a.93.93,0,0,1-.51.28c-.23,0-.35-.49-.35-1.5V809.85c0-.69,0-1.38-.09-2.06a2.86,2.86,0,0,0-.65-1.94,2.46,2.46,0,0,0-.55-.49,4.18,4.18,0,0,0-.52-.26,3.11,3.11,0,0,1-.4-.18C518.28,804.86,518.23,804.81,518.23,804.74Z"/><path class="cls-1" d="M605.05,835.67c0,.15-.1.22-.3.22q-1.05,0-2.1-.09c-.7-.06-1.4-.09-2.09-.09s-1.18,0-1.76.07-1.16.07-1.74.07l-.44,0c-.24,0-.35-.05-.35-.11s.06-.15.18-.2a2.66,2.66,0,0,1,.39-.11,2.32,2.32,0,0,1,.46,0,.75.75,0,0,0,.32-.05,1.23,1.23,0,0,0,.75-.59,2.11,2.11,0,0,0,.21-1,4.84,4.84,0,0,0-.17-1.19c-.12-.48-.23-.87-.34-1.2L596,825.86c-.12-.29-.22-.54-.31-.73a1.29,1.29,0,0,0-.32-.44,1.2,1.2,0,0,0-.53-.2,7.18,7.18,0,0,0-.9,0h-8.7l-.79,0a1.18,1.18,0,0,0-.5.13.84.84,0,0,0-.33.38c-.08.17-.18.43-.3.75l-1.84,5a6.09,6.09,0,0,0-.19.62c-.08.27-.15.54-.22.82s-.14.55-.2.82a3,3,0,0,0-.09.62,1.69,1.69,0,0,0,.83,1.58,1.42,1.42,0,0,0,.59.16c.31,0,.46.12.46.24a.18.18,0,0,1-.17.2l-.26,0c-.45,0-1,0-1.54-.07s-1.09-.07-1.52-.07a11.56,11.56,0,0,0-1.4.07c-.41,0-.88.07-1.41.07l-.34,0q-.27,0-.27-.24c0-.12.17-.19.51-.22a1.51,1.51,0,0,0,.85-.35,5.48,5.48,0,0,0,1-1.31c.32-.57.64-1.2.94-1.88s.6-1.37.87-2.07.53-1.36.77-1.94l7.39-18.69.83-2.21c.27-.71.5-1.33.72-1.88s.4-1,.55-1.3.26-.49.35-.49.26.11.35.34a2,2,0,0,0,.22.46c.38.88.71,1.77,1,2.65s.62,1.78,1,2.7l8.31,22.35c.15.41.31.82.48,1.21a9.38,9.38,0,0,0,.62,1.17,2.55,2.55,0,0,0,1.39,1.19l.27.05.41.09a2.26,2.26,0,0,1,.37.11C605,835.6,605.05,835.64,605.05,835.67Zm-10.31-13.3a6.89,6.89,0,0,0-.33-1.08l-.72-2.08-.76-2.12c-.25-.66-.41-1.06-.46-1.21l-1.36-3.67c-.38-1-.66-1.72-.83-2.08s-.32-.53-.44-.53-.25.14-.39.4a10.5,10.5,0,0,0-.57,1.33l-1.71,4.37c0,.15-.22.57-.47,1.26s-.55,1.44-.86,2.23-.58,1.52-.83,2.19a7,7,0,0,0-.37,1.12c0,.15.05.23.16.25l.41,0h8.44a6.09,6.09,0,0,0,.72,0C594.62,822.7,594.74,822.58,594.74,822.37Z"/><path class="cls-1" d="M619,816.54a1.18,1.18,0,0,0,.29.91,2.12,2.12,0,0,0,1.16.28,27,27,0,0,1,4.67.58,13.17,13.17,0,0,1,4.15,1.59,8.64,8.64,0,0,1,3,3,9,9,0,0,1,1.11,4.68,7.17,7.17,0,0,1-.83,3.49,8.72,8.72,0,0,1-2.21,2.67,10.19,10.19,0,0,1-3.11,1.73,11,11,0,0,1-3.53.59,28.88,28.88,0,0,1-3-.15,26,26,0,0,0-3-.16c-.64,0-1.38,0-2.21.07s-1.57.07-2.2.07l-.29,0a.19.19,0,0,1-.2-.2s.08-.11.22-.15a3.41,3.41,0,0,1,.48-.09l.5,0,.33,0a1.54,1.54,0,0,0,.83-.35,2,2,0,0,0,.52-.75,5,5,0,0,0,.29-1.39c.08-.66.13-1.39.18-2.16s.07-1.53.08-2.24,0-1.23,0-1.59V808.37a4.48,4.48,0,0,0-.52-2.43,2.46,2.46,0,0,0-2.19-.8c-.2,0-.3-.07-.3-.22s.15-.23.46-.26l.63,0c.59,0,1.16,0,1.71.09a15.72,15.72,0,0,0,1.7.09c.85,0,1.78,0,2.78,0l2.93-.06c1,0,1.8,0,2.55-.07s1.31,0,1.67,0,.74,0,1.11,0a10.26,10.26,0,0,1,1.12,0c.11,0,.17.1.17.31s0,.28,0,.4a2,2,0,0,0,0,.35c0,.38,0,.77,0,1.15s.05.76.05,1.15c0,0,0,.15,0,.28s-.08.21-.16.21-.16-.08-.2-.23a.74.74,0,0,0-.15-.31,2.43,2.43,0,0,0-.66-.83,3.44,3.44,0,0,0-1.13-.45,6,6,0,0,0-1.24-.22c-.43,0-.85,0-1.25,0H620a1.82,1.82,0,0,0-.76.11c-.13.07-.2.31-.2.73Zm11.59,11.71a8.84,8.84,0,0,0-.81-3.89,8.15,8.15,0,0,0-2.21-2.81,9.35,9.35,0,0,0-3.32-1.67,15.13,15.13,0,0,0-4.2-.56,2.26,2.26,0,0,0-.76.11c-.19.08-.29.32-.29.73v9c0,.23,0,.57,0,1s0,.89.06,1.35a10.26,10.26,0,0,0,.16,1.3,2.31,2.31,0,0,0,.28.88,2.67,2.67,0,0,0,1.75,1.13,10.23,10.23,0,0,0,2.09.24,8.68,8.68,0,0,0,2.82-.44,6.1,6.1,0,0,0,3.83-3.44A7.24,7.24,0,0,0,630.59,828.25Z"/><path class="cls-1" d="M664.64,812.79a12.47,12.47,0,0,1-.54,3.66,10.14,10.14,0,0,1-1.61,3.16,7.78,7.78,0,0,1-2.6,2.23,7.41,7.41,0,0,1-3.57.84,5.74,5.74,0,0,1-.62,0c-.32,0-.64-.06-1-.1a5.07,5.07,0,0,1-.87-.2c-.27-.09-.4-.18-.4-.27a.12.12,0,0,1,.13-.13,4.32,4.32,0,0,1,1,.13,4,4,0,0,0,1,.13,5.23,5.23,0,0,0,3.19-1.08,5.87,5.87,0,0,0,2-2.71,5.76,5.76,0,0,0,.44-1.76c.06-.61.09-1.22.09-1.8a18,18,0,0,0-.19-2.54,9.16,9.16,0,0,0-.71-2.35,6.87,6.87,0,0,0-1.35-2,6.21,6.21,0,0,0-2.17-1.4,8.31,8.31,0,0,0-2.1-.49,19.07,19.07,0,0,0-2.18-.13h-.61a3.83,3.83,0,0,0-1.18.11.72.72,0,0,0-.44.51,7.33,7.33,0,0,0-.26,1.63c-.06.73-.09,1.76-.09,3.08v14.39c0,1.14,0,2.22,0,3.24s.05,1.91.11,2.69.13,1.42.22,1.92a2.3,2.3,0,0,0,.35,1,2.39,2.39,0,0,0,1.18.73,5.15,5.15,0,0,0,1.4.2,1.09,1.09,0,0,1,.26,0c.12,0,.17.09.17.18s-.11.18-.34.2l-.62,0-.94,0-.83-.07-1-.07-1.37,0c-.59,0-1.23,0-1.93.07s-1.34.07-1.92.07a2.77,2.77,0,0,1-.42,0c-.13,0-.2-.06-.2-.15s.11-.19.31-.22a2.69,2.69,0,0,0,.44-.09,3.84,3.84,0,0,0,.87-.24,1.86,1.86,0,0,0,.7-.64,2.54,2.54,0,0,0,.39-1,10.86,10.86,0,0,0,.2-1.44c0-.5.07-1,.09-1.46s0-.87,0-1.19V808.5a8.18,8.18,0,0,0-.21-1.81,2.14,2.14,0,0,0-1.1-1.42,2.92,2.92,0,0,0-.78-.21c-.36-.06-.53-.14-.53-.23s.1-.22.31-.22a13.57,13.57,0,0,1,1.44.09,11.29,11.29,0,0,0,1.45.09c.55,0,1.1,0,1.64-.07l1.64-.11c.61-.06,1.23-.08,1.84-.08h1.84a18.06,18.06,0,0,1,2.23.13,9.06,9.06,0,0,1,6.08,3.44A7.68,7.68,0,0,1,664.64,812.79Z"/><path class="cls-1" d="M698.05,835.67c0,.15-.11.22-.31.22q-1.05,0-2.1-.09c-.7-.06-1.39-.09-2.09-.09s-1.17,0-1.75.07-1.17.07-1.75.07l-.44,0c-.23,0-.35-.05-.35-.11s0-.15.17-.2a3.26,3.26,0,0,1,.4-.11,2.19,2.19,0,0,1,.46,0,.72.72,0,0,0,.32-.05,1.2,1.2,0,0,0,.75-.59,2,2,0,0,0,.22-1,4.91,4.91,0,0,0-.18-1.19,10,10,0,0,0-.35-1.2l-2-5.52c-.12-.29-.22-.54-.31-.73a1.18,1.18,0,0,0-.33-.44,1.07,1.07,0,0,0-.52-.2,7.18,7.18,0,0,0-.9,0h-8.69l-.79,0a1.19,1.19,0,0,0-.51.13.77.77,0,0,0-.32.38,7.29,7.29,0,0,0-.31.75l-1.84,5a6.09,6.09,0,0,0-.19.62c-.07.27-.15.54-.22.82s-.14.55-.2.82a3,3,0,0,0-.09.62,1.69,1.69,0,0,0,.83,1.58,1.42,1.42,0,0,0,.59.16c.31,0,.46.12.46.24s0,.19-.17.2l-.27,0c-.43,0-.94,0-1.52-.07s-1.1-.07-1.53-.07a11.56,11.56,0,0,0-1.4.07c-.41,0-.88.07-1.4.07l-.36,0c-.17,0-.25-.09-.25-.24s.16-.19.5-.22a1.45,1.45,0,0,0,.85-.35,5.48,5.48,0,0,0,1-1.31c.32-.57.63-1.2.95-1.88s.59-1.37.87-2.07.53-1.36.76-1.94L681,809.12l.83-2.21c.26-.71.5-1.33.73-1.88s.39-1,.54-1.3.26-.49.35-.49.26.11.35.34a3.4,3.4,0,0,0,.22.46c.37.88.71,1.77,1,2.65s.61,1.78,1,2.7l8.31,22.35c.14.41.31.82.48,1.21a8.22,8.22,0,0,0,.62,1.17,2.55,2.55,0,0,0,1.39,1.19l.27.05.41.09a2,2,0,0,1,.37.11C698,835.6,698.05,835.64,698.05,835.67Zm-10.32-13.3a6.89,6.89,0,0,0-.33-1.08c-.21-.63-.46-1.32-.72-2.08s-.52-1.46-.76-2.12-.41-1.06-.46-1.21l-1.36-3.67c-.38-1-.65-1.72-.83-2.08s-.32-.53-.43-.53-.25.14-.4.4-.33.71-.57,1.33l-1.7,4.37c-.07.15-.22.57-.48,1.26s-.55,1.44-.86,2.23-.58,1.52-.83,2.19a8.51,8.51,0,0,0-.37,1.12c0,.15,0,.23.15.25l.42,0h8.44a6.09,6.09,0,0,0,.72,0C687.61,822.7,687.73,822.58,687.73,822.37Z"/><path class="cls-1" d="M741.46,835.71c0,.15-.39.23-1.18.23s-1.46-.05-2.18-.12-1.47-.11-2.2-.11c-.51,0-1,0-1.59.07s-1.07.07-1.59.07c-.24,0-.36-.08-.36-.23s.07-.09.2-.11l.29,0a3,3,0,0,0,1.35-.48,1.63,1.63,0,0,0,.63-.69,3.43,3.43,0,0,0,.36-1,6.85,6.85,0,0,0,.12-1.1c0-.37,0-.68,0-1,0-.59,0-1.16-.07-1.72s-.09-1.14-.15-1.72L734,813.54c0-.24-.07-.45-.11-.62s-.14-.27-.29-.27-.25.12-.39.35a16.3,16.3,0,0,0-.74,1.55l-8.66,19.22c-.23.47-.43.87-.59,1.22s-.31.5-.46.5a.36.36,0,0,1-.33-.24c-.07-.16-.14-.29-.19-.38a12.62,12.62,0,0,1-.55-1.15c-.19-.44-.48-1.09-.85-2l-1.53-3.51-2.54-5.79c-.67-1.5-1.35-3-2.06-4.53s-1.42-3-2.18-4.48c-.06-.09-.14-.24-.26-.45s-.24-.3-.35-.3-.21.25-.26.75l-1.1,14.88c-.05.62-.1,1.25-.12,1.88s-.05,1.26-.05,1.88a9.7,9.7,0,0,0,.17,1.61,1.94,1.94,0,0,0,.79,1.35,2.7,2.7,0,0,0,.61.31,3.9,3.9,0,0,0,.48.13l.44.07a1.83,1.83,0,0,1,.48.11c.09.06.13.11.13.18s-.1.09-.3.11l-.36,0a12.49,12.49,0,0,1-1.85-.13,12.52,12.52,0,0,0-1.86-.14,15.74,15.74,0,0,0-1.82.11,15.28,15.28,0,0,1-1.81.12c-.17,0-.33,0-.45,0s-.2-.06-.2-.15,0-.1.15-.14a.85.85,0,0,1,.24,0q.39-.09.66-.18a3.18,3.18,0,0,0,.61-.31,2.19,2.19,0,0,0,.72-.93,8.56,8.56,0,0,0,.48-1.32,10.07,10.07,0,0,0,.28-1.39c.06-.46.11-.86.13-1.22.32-3.2.64-6.39.94-9.54s.65-6.33,1-9.54l.74-6.36a3.73,3.73,0,0,1,.07-.4c0-.2.14-.31.28-.31s.23.09.33.27.18.31.24.39c.18.36.34.7.48,1s.29.67.44,1,.25.56.39.88.35.78.61,1.37l1.08,2.34,1.75,3.8,2.62,5.75,3.74,8.17a3.7,3.7,0,0,1,.2.37.35.35,0,0,0,.32.25c.21,0,.47-.38.79-1.13s.86-2,1.62-3.65l9.09-19.87a5.31,5.31,0,0,1,.35-.76.42.42,0,0,1,.35-.22q.23,0,.3.66l.71,8c0,.45.09,1.25.21,2.41s.25,2.5.4,4,.3,3.1.48,4.75.34,3.18.5,4.61.31,2.66.46,3.67a8.25,8.25,0,0,0,.39,1.84,2.38,2.38,0,0,0,1.14,1.18,2.08,2.08,0,0,0,.83.27C741.31,835.52,741.46,835.59,741.46,835.71Z"/><path class="cls-1" d="M780.15,819.59a23.57,23.57,0,0,1-.87,6.47,15.41,15.41,0,0,1-2.69,5.37,13.05,13.05,0,0,1-4.51,3.64,14.18,14.18,0,0,1-6.38,1.35,17.31,17.31,0,0,1-6.42-1.15,14.29,14.29,0,0,1-4.93-3.24,15,15,0,0,1-3.19-5,17.77,17.77,0,0,1-1.13-6.47c0-.8,0-1.59.08-2.39a13.92,13.92,0,0,1,.4-2.38,17.17,17.17,0,0,1,1.87-4.62,15.39,15.39,0,0,1,3.06-3.71,13.45,13.45,0,0,1,8.95-3.34c1,0,2,.06,3,.15a13.62,13.62,0,0,1,2.9.65,14.15,14.15,0,0,1,4.15,2.32,14.59,14.59,0,0,1,3.1,3.42,16.18,16.18,0,0,1,1.94,4.24A16.7,16.7,0,0,1,780.15,819.59Zm-3,3.4a27,27,0,0,0-.71-6,19,19,0,0,0-2.23-5.67,13.35,13.35,0,0,0-3.93-4.25,10,10,0,0,0-5.81-1.65,10.71,10.71,0,0,0-5,1.1,10.3,10.3,0,0,0-3.48,3,12.7,12.7,0,0,0-2,4.29,19.28,19.28,0,0,0-.65,5.08,21.5,21.5,0,0,0,.81,5.78,17.17,17.17,0,0,0,2.39,5.24,13.16,13.16,0,0,0,4,3.78,10.66,10.66,0,0,0,5.64,1.45,11.75,11.75,0,0,0,4.76-.9,9.57,9.57,0,0,0,3.45-2.54,10.69,10.69,0,0,0,2.1-3.84A15.82,15.82,0,0,0,777.14,823Z"/><path class="cls-1" d="M810.45,828.16a6.77,6.77,0,0,1-.83,3.4,7.61,7.61,0,0,1-2.21,2.45,10,10,0,0,1-3.11,1.5,12.27,12.27,0,0,1-3.51.51,28.68,28.68,0,0,1-3-.15,26,26,0,0,0-3-.16c-.64,0-1.31,0-2,.07s-1.35.07-2,.07l-.29,0a.19.19,0,0,1-.2-.2c0-.14.16-.22.47-.24a4.3,4.3,0,0,0,.63-.07,1.54,1.54,0,0,0,.83-.35,2.17,2.17,0,0,0,.52-.75,5,5,0,0,0,.29-1.39c.07-.66.13-1.39.17-2.16s.07-1.53.1-2.24,0-1.23,0-1.59V808.37a5.12,5.12,0,0,0-.38-2,2,2,0,0,0-1.55-1.17,3.63,3.63,0,0,0-.76-.11c-.31,0-.46-.1-.46-.24s.17-.23.52-.27l.7,0a12.36,12.36,0,0,1,1.73.11,13.93,13.93,0,0,0,1.72.11c.73,0,1.45,0,2.15-.09s1.41-.09,2.14-.09a9,9,0,0,1,3,.51,8.13,8.13,0,0,1,2.59,1.46,7.25,7.25,0,0,1,1.78,2.28,6.26,6.26,0,0,1,.68,2.95,10.31,10.31,0,0,1-.32,2.7,7.69,7.69,0,0,1-.88,2,6.6,6.6,0,0,1-1.24,1.46,10.63,10.63,0,0,1-1.4,1,2.11,2.11,0,0,1-.31.2c-.15.07-.22.15-.22.24s.12.16.35.22a4.9,4.9,0,0,1,.57.18,12.17,12.17,0,0,1,2.62,1.26,9.41,9.41,0,0,1,2.13,1.83,8.7,8.7,0,0,1,1.41,2.37A7.63,7.63,0,0,1,810.45,828.16Zm-5.86-14.76a7.29,7.29,0,0,0-.55-2.78,7.88,7.88,0,0,0-1.48-2.34,7.49,7.49,0,0,0-2.21-1.64,6.14,6.14,0,0,0-2.71-.61,2.18,2.18,0,0,0-1.23.22c-.17.14-.26.6-.26,1.36v10a3.74,3.74,0,0,0,.05.55.53.53,0,0,0,.3.42,3.46,3.46,0,0,0,.72.22,7.41,7.41,0,0,0,1,.11l1,0,.83,0h1a2.74,2.74,0,0,0,1.59-.47,3.74,3.74,0,0,0,1.12-1.24,6.1,6.1,0,0,0,.65-1.79A9.71,9.71,0,0,0,804.59,813.4Zm2.75,15.6a7.93,7.93,0,0,0-.89-3.87,8.09,8.09,0,0,0-2.34-2.65,9.86,9.86,0,0,0-3.26-1.52,14.25,14.25,0,0,0-3.65-.49,2.22,2.22,0,0,0-.76.11c-.19.08-.29.32-.29.73v7.87c0,.23,0,.57,0,1s0,.89.07,1.35a12.55,12.55,0,0,0,.15,1.3,2.48,2.48,0,0,0,.29.88,2.64,2.64,0,0,0,1.74,1.13,10.25,10.25,0,0,0,2.1.24,10,10,0,0,0,2.69-.33,5.79,5.79,0,0,0,2.17-1.06,5,5,0,0,0,1.44-1.9A6.8,6.8,0,0,0,807.34,829Z"/><path class="cls-1" d="M821.16,804.74c0-.08.06-.14.19-.15l.37,0a10.31,10.31,0,0,1,1.6.11,11.14,11.14,0,0,0,3.26,0,10,10,0,0,1,1.62-.13,2.25,2.25,0,0,1,.34,0c.15,0,.22.08.22.19s-.08.2-.26.23a1.13,1.13,0,0,0-.35.09,1.88,1.88,0,0,0-1.53,1.14,7.84,7.84,0,0,0-.3,2.43v20.9c0,.29,0,.56,0,.79s.08.36.2.36.2-.08.34-.23.25-.25.32-.3l19-24.52a11.57,11.57,0,0,1,.88-1,1.21,1.21,0,0,1,.79-.44c.14,0,.24.15.3.46a5.92,5.92,0,0,1,.08,1.09v1.15c0,.65,0,1.33,0,2s0,1.38,0,2v19.41c0,.27,0,.64,0,1.13s.07,1,.14,1.46a10.47,10.47,0,0,0,.3,1.36,1.2,1.2,0,0,0,.59.82,3.18,3.18,0,0,0,1.12.27c.42,0,.63.12.63.26s-.23.23-.7.23-1.13,0-1.72-.07-1.18-.07-1.73-.07a16.76,16.76,0,0,0-1.83.11,17.35,17.35,0,0,1-1.84.12l-.51,0c-.21,0-.32-.09-.32-.24s.1-.19.3-.22l.39-.05a3,3,0,0,0,1.1-.48,2.27,2.27,0,0,0,.63-.86,7.93,7.93,0,0,0,.4-1.22,10.2,10.2,0,0,0,.19-1.3c0-.43.05-.79.05-1.09V811.64q0-.36,0-.84c0-.32-.06-.49-.15-.49s-.45.15-.65.47a6.1,6.1,0,0,1-.66.81l-17.84,22.8a5.53,5.53,0,0,0-.43.51c-.21.25-.43.5-.66.74a8.5,8.5,0,0,1-.68.67.91.91,0,0,1-.5.28c-.24,0-.35-.49-.35-1.5V809.85c0-.69,0-1.38-.09-2.06a2.86,2.86,0,0,0-.65-1.94,2.46,2.46,0,0,0-.55-.49,3.66,3.66,0,0,0-.53-.26,2.92,2.92,0,0,1-.39-.18C821.21,804.86,821.16,804.81,821.16,804.74Z"/><path class="cls-1" d="M876.07,835.67c0-.09.07-.15.22-.18l.55-.09c.22,0,.44-.06.69-.11a1.9,1.9,0,0,0,.68-.24,2.6,2.6,0,0,0,1.2-2.08,25.21,25.21,0,0,0,.2-3.44v-7.82c0-.56-.07-.84-.22-.84a.64.64,0,0,0-.24.07,1.38,1.38,0,0,0-.24.11,29.66,29.66,0,0,1-3.06,1.12,14.86,14.86,0,0,1-4.5.6c-3.21,0-5.47-.72-6.77-2.14s-2-3.51-2-6.26v-6.44a2.87,2.87,0,0,0-.43-1.73,2.69,2.69,0,0,0-.94-.81,3.79,3.79,0,0,0-.94-.33c-.29-.06-.44-.14-.44-.23a.24.24,0,0,1,.09-.22,1.29,1.29,0,0,1,.44,0l.72,0c.36,0,.75.06,1.18.07s.83,0,1.22.06.68,0,.86,0,.46,0,.78,0l1-.08.9-.09.52,0c.41,0,.62.1.62.3s-.06.11-.18.14l-.46.11-.59.15a1.48,1.48,0,0,0-.56.31,2.06,2.06,0,0,0-.73,1,5.49,5.49,0,0,0-.23,1.81v5.83a6.86,6.86,0,0,0,1.9,5.08q1.89,1.9,5.79,1.9a7.56,7.56,0,0,0,1.48-.16c.56-.1,1.11-.22,1.65-.37a15,15,0,0,0,1.52-.51c.48-.19.88-.38,1.21-.55a2.33,2.33,0,0,0,.5-.4,1.07,1.07,0,0,0,.15-.66V808.9a12.18,12.18,0,0,0-.15-2.26,1.93,1.93,0,0,0-.9-1.19,1.34,1.34,0,0,0-.48-.22l-.59-.17-.5-.16c-.15,0-.22-.09-.22-.16s.12-.22.35-.23l.48,0a13.13,13.13,0,0,1,2,.15,12,12,0,0,0,2,.16,11.72,11.72,0,0,0,1.66-.13,10.35,10.35,0,0,1,1.67-.13c.48,0,.73.08.73.26s-.08.16-.26.2l-.61.15-.72.16a1.29,1.29,0,0,0-.55.2,1.64,1.64,0,0,0-.89,1.06,9,9,0,0,0-.2,2.21v21.55c0,.3,0,.64,0,1s.05.81.09,1.22a5.84,5.84,0,0,0,.24,1.19,2.57,2.57,0,0,0,.48.92,1.64,1.64,0,0,0,.72.53,2.48,2.48,0,0,0,.85.14,2,2,0,0,1,.33,0q.24,0,.24.18c0,.15-.18.22-.57.22-.72,0-1.45,0-2.16,0s-1.44,0-2.16,0-1.35,0-2,.09-1.36.09-2,.09a1.15,1.15,0,0,1-.22,0A.17.17,0,0,1,876.07,835.67Z"/><path d="M559.24,646.22a29.86,29.86,0,0,1,2.48-12.71,24.82,24.82,0,0,1,6.56-8.7,26.72,26.72,0,0,1,9.27-5,35.66,35.66,0,0,1,10.6-1.6,39.05,39.05,0,0,1,8.05.82,34.19,34.19,0,0,1,7.44,2.46v13.08a17.91,17.91,0,0,0-5.91-3.14,23,23,0,0,0-7.14-1.12,21.54,21.54,0,0,0-6.21.9A15.36,15.36,0,0,0,579,634a13.8,13.8,0,0,0-3.81,4.93,16.57,16.57,0,0,0-1.45,7.29,13.55,13.55,0,0,0,1.45,6.53A12.91,12.91,0,0,0,579,657.2a16.09,16.09,0,0,0,5.34,2.54,23.17,23.17,0,0,0,6.14.82,24.51,24.51,0,0,0,7.71-1.19A15.59,15.59,0,0,0,604,656v13.46a36.67,36.67,0,0,1-15.57,3.28,38.38,38.38,0,0,1-10.76-1.53,27.06,27.06,0,0,1-9.34-4.75,24.1,24.1,0,0,1-6.61-8.21A26.64,26.64,0,0,1,559.24,646.22Z"/><path d="M654.6,619.32v12.32h-15v40H625.46v-40H610.35V619.32Z"/><path d="M687.56,666a18.55,18.55,0,0,1-4.24,4,15.58,15.58,0,0,1-4.69,2.14,20.67,20.67,0,0,1-5.19.63,22.62,22.62,0,0,1-4.2-.41c-1.42-.27-2.87-.61-4.34-1V659.89a15.58,15.58,0,0,0,3,.79,20.62,20.62,0,0,0,3.17.26,10.34,10.34,0,0,0,4.27-.79,5.31,5.31,0,0,0,2.67-2.8l.84-1.79L658,619.32h15.64l11.75,23.83L695,619.32h15.63l-19.3,40.34A33.55,33.55,0,0,1,687.56,666Z"/><path d="M767.2,671.39V659.66h-6.86V619.32H722.19c0,3.44-.12,6.91-.34,10.42a95,95,0,0,1-1.26,10.42A70.67,70.67,0,0,1,718,650.25a50,50,0,0,1-4.23,9.41h-6.11v11.73Zm-35.82-17.85a57.21,57.21,0,0,0,1.84-6.88c.48-2.38.87-4.85,1.18-7.39s.56-5.08.76-7.63h11.06v28H728.68A35.33,35.33,0,0,0,731.38,653.54Z"/><path d="M810.91,671.62V650.25c0-1.44,0-2.93.08-4.44s.13-2.9.24-4.15l-20.91,30H777v-52.3h14.11v21.37c0,1.44,0,2.94-.07,4.48s-.13,2.94-.23,4.18l20.9-30H825v52.3Z"/><path d="M833.34,671.62l14.42-18.9a21.18,21.18,0,0,1-4.46-2.25,13.77,13.77,0,0,1-3.47-3.25,15.13,15.13,0,0,1-2.29-4.37,17,17,0,0,1-.84-5.53,17.78,17.78,0,0,1,1.79-8.33,15.89,15.89,0,0,1,4.81-5.56,19.77,19.77,0,0,1,7-3.14,34.71,34.71,0,0,1,8.31-1H881.1v52.3H867v-17h-5l-12.59,17Zm17.85-34.3a5.39,5.39,0,0,0,1.95,4.56,9,9,0,0,0,5.61,1.5H867V631.27h-8.23a9,9,0,0,0-5.61,1.5A5.39,5.39,0,0,0,851.19,637.32Z"/><path class="cls-1" d="M882.65,776.94H386.84a1.89,1.89,0,0,1,0-3.77H882.65a1.89,1.89,0,0,1,0,3.77Z"/><path class="cls-2" d="M912.43,350.87a439.1,439.1,0,0,0-9.62-59.55,377.78,377.78,0,0,0-18.58-57.52,341.55,341.55,0,0,0-64.89-101.24c-3.7-4-7.52-8-11.41-11.82a338.4,338.4,0,0,0-41.31-37.38C716.24,45,656.9,21.92,592.74,14.82c.33.49.69.92,1,1.44l179.87,324.2c-9.87-1.23-22.06-.91-30.92-.26l-168-306.31c-5.11-8.21-9.35-15.44-13.19-21.25-9.24-.28-18.53-.29-27.92.07a438.08,438.08,0,0,0-112,9.81C303.71,48,196.23,117.84,119,219.21,46.65,314.1,8,428.85,10.13,542.3c2.15,114.81,46.24,216.18,124.12,285.51,0,0,0,.06.06.08,6.26,5.92,12.94,8.9,19.91,8.9a25.78,25.78,0,0,0,5-.49c31.42-6.24,60.58-71.27,81.87-118.75,3.64-8.11,7-15.63,10.07-22.11l83.2-174.87c53.57-6.8,107-25.07,155.52-43.82,99.25-38.39,188.84-78.32,258.61-85.51l104.2,191.32a5.67,5.67,0,0,0,1.19,1.5c5.25,8.22,15.12,4.94,17.76-.11l.15.06A460.32,460.32,0,0,0,912.43,350.87ZM560.27,45.68,721.34,341.43c-7.73.59-15.91,1.46-24.75,2.68-49.35,6.81-114.87,24.6-226.17,61.4a681.14,681.14,0,0,1-92.79,24.07ZM539,29l.85-1.76,1.92.3a5,5,0,0,1,3.79,2.53c1.87,3.26.38,8.64-2.44,15.71l-.06.15L359.43,432.7q-5.9.81-12.16,1.56l1-2.16q25.88-54.66,54.2-115l19.93-42.4C457.78,199.52,497.85,114.28,539,29Zm-29.84-2.5c7.91-.79,15.77-1.28,23.58-1.62-50.17,104-97.38,204.32-139.11,293Q364.73,379.23,338.37,435c-125.13,19.22-211.68-31.69-217-138.71q3.21-5.61,6.55-11.17a584.44,584.44,0,0,1,69.27-92.05A549,549,0,0,1,384.77,60.51,461.13,461.13,0,0,1,496,28.25C500.36,27.59,504.74,27,509.13,26.48ZM231.39,702.83c-35,75-59.25,110.2-76.24,110.68h-.1a8.6,8.6,0,0,1-5.48-1.51,8.64,8.64,0,0,0-2.34-1.12l-7.48-2.4,7.41-2.6C169.65,798,190.63,755.2,219.66,696c8.58-17.5,17.46-35.6,27.4-55,15-29.18,37.13-74.87,54.9-111.58l3.29-6.81c3.69-.21,7.44-.45,11.73-.82ZM852.77,552.62c1.79-17-12.84-38.46-18.57-52.22-.1-.24-44.33-79.15-57.32-102.67,6.2-4,29.91-2.82,30.07-1.2l48,86c0,.21,6.79,16.14,6.9,16.4C870,518.55,860,549.45,852.77,552.62Zm43-130.54c-.35,12.86-7.42,15.38-7.32,12.35,4.89-136.75-35.79-258.08-133.78-334.64A335,335,0,0,0,721.47,77Q730.91,83.29,740,90.2c104.45,79.59,144.15,230.22,138.55,351.39l-36.79-66.92a88.81,88.81,0,0,0-33.69-14.09c-19.76-4-40.21-3.53-60.33-1.25-40.37,4.63-79.87,15.86-119,27.72-19.57,6.06-39,12.59-58.42,19.29s-38.85,13.42-58.25,20.31c-38.84,13.87-77.52,27.62-117.3,40.26-39.89,12.45-81.2,21.32-123.5,24.27a291.12,291.12,0,0,1-63.87-2.38c-21.2-3.32-42.51-9.32-61.68-20.29q-3.64-2.1-7.17-4.43c34.58,36.09,87.54,62.54,157.67,59.25L292,532.12l-1.67,3.23.08.06C271.28,574.85,253.46,610.89,237,643c-9.95,19.34-18.83,37.46-27.42,55-30.45,62.11-53,108-76.71,110.41a41.81,41.81,0,0,1-7.33-5.05c-5.52-7.51-10.84-15.14-15.74-23a371.86,371.86,0,0,1-26.63-51.79A419.38,419.38,0,0,1,53.56,616.7c-9.73-76.64.37-154.92,25.38-227.5q2.59-7.4,5.42-14.72c-.54-4.92-.86-9.84-.91-14.73-.19-21.41,3.83-42.37,10.22-62.24,2.55-7.86,5.59-15.51,8.86-23-.37.61-.73,1.23-1,1.76l-.06.12c-.07.1-.16.18-.22.27A519.3,519.3,0,0,0,53.35,381.36C28,457.67,20.41,540.11,33.74,619.28c6.81,39.52,18.87,78.15,36.7,113.91A354.22,354.22,0,0,0,127.8,816.1q1.61,2.94,3.29,5.44c-135.87-122-156.36-394.26-9.76-591.91C237.37,73.18,424.69,18,475.17,18.05a479.94,479.94,0,0,0-99.55,25.71C300.54,72,233,118.91,177.48,176.77a550,550,0,0,0-54.15,65.74c-1,1.39-2.11,2.86-3.24,4.5-2.73,4-5.19,7.67-7.43,11.12a307.71,307.71,0,0,0-12.56,41.14c-4.53,19.82-6.65,40.14-5,60,1.44,19.78,7.11,39,17.39,55.23a102,102,0,0,0,18.36,21.82,116.25,116.25,0,0,0,23.64,16.08c17.17,8.62,36.19,13.88,55.74,16.27s39.56,2.23,59.5.82c40-2.94,79.6-12.47,118.54-23.87,38.91-11.92,77.92-25.78,117.12-38.44,19.6-6.44,39.24-12.83,59-19s39.67-11.83,59.71-17.2,40.25-10.25,60.73-14.06,41.15-7,62.11-7.84,42.23-.13,62.56,5.91A93,93,0,0,1,838,368.45c.23.16.43.36.66.53L660.19,44.46a358.83,358.83,0,0,1,43.25,21.38,299.05,299.05,0,0,1,66.73,39.59A303,303,0,0,1,805.37,138c3.69,4.3,7.3,8.66,10.76,13.13a328.16,328.16,0,0,1,29.29,45.56l6.15,12.08c2,4.05,3.77,8.22,5.69,12.3,3.69,8.24,7.2,16.57,10.25,25.09a450,450,0,0,1,15.82,51.92,406.09,406.09,0,0,1,9.39,53.68A491,491,0,0,1,895.73,422.08Z"/></svg>